<svg xmlns="http://www.w3.org/2000/svg" xmlns:xlink="http://www.w3.org/1999/xlink" viewBox="0 0 3676.56 2826.91"><defs><style>.cls-1{fill:none;}.cls-2{fill:#ccf950;}.cls-12,.cls-3{fill:#fff;}.cls-4{fill:url(#Naamloos_verloop_360);}.cls-5{fill:url(#Naamloos_verloop_418);}.cls-6{fill:url(#Naamloos_verloop_418-2);}.cls-7{fill:url(#Naamloos_verloop_418-3);}.cls-8{clip-path:url(#clip-path);}.cls-9{fill:url(#Naamloos_verloop_360-2);}.cls-10{fill:url(#Naamloos_verloop_360-3);}.cls-11{fill:#91b3fa;}.cls-12{opacity:0.69;}.cls-13{fill:url(#Naamloos_verloop_15);}.cls-14{fill:url(#Naamloos_verloop_9);}.cls-15{fill:url(#Naamloos_verloop_36);}</style><linearGradient id="Naamloos_verloop_360" x1="321.24" y1="1317.83" x2="851.04" y2="2859.91" gradientUnits="userSpaceOnUse"><stop offset="0" stop-color="#0400b5"/><stop offset="1" stop-color="#0600ff"/></linearGradient><linearGradient id="Naamloos_verloop_418" x1="-1831.14" y1="3493" x2="1744.97" y2="1487.35" gradientUnits="userSpaceOnUse"><stop offset="0" stop-color="#8f7a8b"/><stop offset="1" stop-color="#fcd7f7"/></linearGradient><linearGradient id="Naamloos_verloop_418-2" x1="6047.78" y1="-7.25" x2="4444.04" y2="560.45" xlink:href="#Naamloos_verloop_418"/><linearGradient id="Naamloos_verloop_418-3" x1="2945" y1="1116.93" x2="4723.59" y2="1098" xlink:href="#Naamloos_verloop_418"/><clipPath id="clip-path"><path class="cls-1" d="M2869.18,2145.46c-20.2-20.54-64.19-99.76-101.9-304.63-36.45-198-56.52-454.79-56.52-723.1s20.07-525.1,56.52-723.09C2805,189.77,2849,110.54,2869.18,90c20.19,20.54,64.18,99.77,101.89,304.64,36.45,198,324.07,454.79,324.07,723.09s-287.62,525.11-324.07,723.1C2933.36,2045.7,2889.37,2124.92,2869.18,2145.46Z"/></clipPath><linearGradient id="Naamloos_verloop_360-2" x1="3381.43" y1="798.59" x2="2198.85" y2="1489.21" xlink:href="#Naamloos_verloop_360"/><linearGradient id="Naamloos_verloop_360-3" x1="1787.18" y1="61.62" x2="1058.72" y2="686.02" xlink:href="#Naamloos_verloop_360"/><linearGradient id="Naamloos_verloop_15" x1="-2948.31" y1="2478.2" x2="-1909.65" y2="1816.67" gradientTransform="matrix(-0.49, -0.87, 0.87, -0.49, -63.96, 288.16)" gradientUnits="userSpaceOnUse"><stop offset="0" stop-color="#ccf950"/><stop offset="1" stop-color="#ccf950"/></linearGradient><linearGradient id="Naamloos_verloop_9" x1="-2060.84" y1="3248.18" x2="-868.87" y2="2489.01" gradientTransform="translate(-28.06 263.38) rotate(-90.89)" gradientUnits="userSpaceOnUse"><stop offset="0" stop-color="#ccf950"/><stop offset="1" stop-color="#ccf950"/></linearGradient><linearGradient id="Naamloos_verloop_36" x1="-2985.22" y1="411.21" x2="-1521.17" y2="-521.25" gradientTransform="translate(411.24 869.92) rotate(176.07)" gradientUnits="userSpaceOnUse"><stop offset="0" stop-color="#ccf950"/><stop offset="0.08" stop-color="#ccf950"/><stop offset="1" stop-color="#ccf950"/></linearGradient></defs><g id="Laag_2" data-name="Laag 2"><g id="Illustration"><path class="cls-2" d="M846.12,1697.59a4.72,4.72,0,0,1-4-7.2q5-8.12,10.22-16.08a4.73,4.73,0,1,1,7.91,5.19q-5.18,7.86-10.07,15.84A4.73,4.73,0,0,1,846.12,1697.59Z"/><path class="cls-2" d="M1986.7,1868.81a4.74,4.74,0,0,1-4.58-3.55c-3-11.73-6.43-23.5-10.14-35a4.73,4.73,0,0,1,9-2.9c3.76,11.66,7.22,23.62,10.3,35.52a4.75,4.75,0,0,1-3.4,5.77A4.91,4.91,0,0,1,1986.7,1868.81Zm-31.2-91.09a4.72,4.72,0,0,1-4.35-2.85c-4.8-11.12-10-22.22-15.42-33a4.73,4.73,0,1,1,8.45-4.25c5.52,11,10.78,22.22,15.66,33.51a4.73,4.73,0,0,1-2.47,6.21A4.62,4.62,0,0,1,1955.5,1777.72Zm-44.89-85.18a4.7,4.7,0,0,1-4-2.21c-6.45-10.23-13.28-20.41-20.31-30.25a4.73,4.73,0,0,1,7.7-5.5c7.13,10,14.07,20.32,20.61,30.71a4.73,4.73,0,0,1-4,7.25Zm-1019.25-59.1a4.74,4.74,0,0,1-3.68-7.7c7.7-9.57,15.78-19,24-28.13a4.73,4.73,0,0,1,7,6.36c-8.12,9-16.08,18.27-23.66,27.7A4.72,4.72,0,0,1,891.36,1633.44Zm961.88-18.25a4.7,4.7,0,0,1-3.57-1.63c-8-9.18-16.24-18.2-24.64-26.83a4.73,4.73,0,1,1,6.78-6.6c8.52,8.76,16.94,17.92,25,27.23a4.73,4.73,0,0,1-3.58,7.83Zm-895.93-51.9a4.73,4.73,0,0,1-3.18-8.22c9.07-8.28,18.5-16.39,28-24.12a4.73,4.73,0,0,1,6,7.35c-9.39,7.61-18.69,15.61-27.63,23.76A4.72,4.72,0,0,1,957.31,1563.29Zm827.53-15.83a4.74,4.74,0,0,1-3.06-1.12c-9.26-7.85-18.84-15.5-28.47-22.74A4.73,4.73,0,1,1,1759,1516c9.77,7.35,19.5,15.11,28.9,23.08a4.73,4.73,0,0,1-3.06,8.34ZM1033.18,1504a4.73,4.73,0,0,1-2.62-8.67c10.23-6.81,20.79-13.41,31.38-19.61a4.73,4.73,0,0,1,4.78,8.17c-10.44,6.1-20.84,12.6-30.92,19.32A4.73,4.73,0,0,1,1033.18,1504Zm673.66-12.91a4.7,4.7,0,0,1-2.46-.69c-10.33-6.31-21-12.39-31.63-18.07a4.73,4.73,0,0,1,4.45-8.35c10.82,5.77,21.62,11.94,32.11,18.34a4.73,4.73,0,0,1-2.47,8.77Zm-589.64-34.18a4.73,4.73,0,0,1-2-9c11.13-5.15,22.58-10,34-14.55a4.73,4.73,0,0,1,3.47,8.81c-11.28,4.43-22.55,9.25-33.52,14.32A4.64,4.64,0,0,1,1117.2,1456.89Zm503.88-9.5a4.66,4.66,0,0,1-1.82-.37c-11.12-4.63-22.57-9-34-13a4.73,4.73,0,0,1,3.12-8.94c11.63,4.06,23.25,8.49,34.54,13.2a4.73,4.73,0,0,1-1.81,9.1Zm-413.63-24.07a4.73,4.73,0,0,1-1.29-9.28c11.8-3.37,23.86-6.44,35.86-9.12a4.73,4.73,0,0,1,2.06,9.24c-11.82,2.63-23.7,5.65-35.32,9A4.87,4.87,0,0,1,1207.45,1423.32Zm322.16-6a4.9,4.9,0,0,1-1.13-.13c-11.73-2.88-23.71-5.45-35.61-7.65a4.73,4.73,0,0,1,1.7-9.3c12.09,2.23,24.26,4.84,36.17,7.76a4.73,4.73,0,0,1-1.13,9.32Zm-227.81-13.29a4.73,4.73,0,0,1-.58-9.42c12.18-1.52,24.57-2.7,36.83-3.51a4.73,4.73,0,1,1,.61,9.44c-12.07.79-24.27,2-36.27,3.45A4,4,0,0,1,1301.8,1404.07Zm132.83-2.42-.42,0c-12-1.06-24.26-1.77-36.36-2.12a4.73,4.73,0,0,1,.13-9.46h.15c12.28.36,24.7,1.08,36.91,2.16a4.73,4.73,0,0,1-.41,9.44Z"/><path class="cls-2" d="M2001.54,1946.14a4.72,4.72,0,0,1-4.69-4.13q-1.18-9.3-2.64-18.58a4.73,4.73,0,1,1,9.34-1.47q1.48,9.4,2.68,18.86a4.73,4.73,0,0,1-4.09,5.29Z"/><path class="cls-2" d="M1872.77,2413a4.73,4.73,0,0,1-3.72-7.66q5.82-7.38,11.39-14.92a4.73,4.73,0,1,1,7.61,5.62q-5.65,7.65-11.56,15.15A4.71,4.71,0,0,1,1872.77,2413Z"/><path class="cls-2" d="M1377.52,2652.33h0c-12.9-.06-26-.52-38.86-1.37a4.73,4.73,0,0,1,.62-9.44c12.7.84,25.58,1.29,38.28,1.35a4.73,4.73,0,0,1,0,9.46Zm62.63-2.84a4.73,4.73,0,0,1-.44-9.43c12.65-1.21,25.43-2.83,38-4.82a4.73,4.73,0,0,1,1.48,9.35c-12.76,2-25.74,3.66-38.59,4.88A3.39,3.39,0,0,1,1440.15,2649.49Zm-163.47-5.76a5.25,5.25,0,0,1-.79-.06c-12.74-2.13-25.58-4.68-38.13-7.57a4.73,4.73,0,1,1,2.12-9.22c12.37,2.85,25,5.36,37.57,7.46a4.73,4.73,0,0,1-.77,9.39Zm263.13-12a4.73,4.73,0,0,1-1.2-9.3c12.3-3.24,24.66-6.91,36.73-10.9a4.73,4.73,0,0,1,3,9c-12.25,4.06-24.8,7.78-37.29,11.07A5.07,5.07,0,0,1,1539.81,2631.75Zm-361.3-12.65a4.7,4.7,0,0,1-1.52-.25c-12.22-4.13-24.47-8.71-36.42-13.59a4.73,4.73,0,0,1,3.57-8.76c11.78,4.81,23.85,9.32,35.88,13.39a4.73,4.73,0,0,1-1.51,9.21Zm456.79-21a4.73,4.73,0,0,1-1.94-9.05c11.61-5.19,23.21-10.82,34.48-16.72a4.73,4.73,0,1,1,4.39,8.38c-11.44,6-23.22,11.7-35,17A4.69,4.69,0,0,1,1635.3,2598.11ZM1085.59,2579a4.69,4.69,0,0,1-2.22-.56c-11.38-6-22.73-12.54-33.74-19.3a4.73,4.73,0,1,1,4.95-8.06c10.84,6.65,22,13,33.24,19a4.73,4.73,0,0,1-2.23,8.91Zm638.48-29.58a4.73,4.73,0,0,1-2.61-8.68c10.61-7,21.17-14.41,31.36-22.06a4.73,4.73,0,0,1,5.67,7.57c-10.34,7.76-21,15.29-31.82,22.39A4.78,4.78,0,0,1,1724.07,2549.43Zm-723.66-25a4.7,4.7,0,0,1-2.86-1c-10.27-7.83-20.42-16.07-30.17-24.51a4.73,4.73,0,0,1,6.19-7.16c9.6,8.32,19.6,16.44,29.71,24.15a4.73,4.73,0,0,1-2.87,8.49Zm803.52-37.27a4.73,4.73,0,0,1-3.19-8.22c9.37-8.59,18.6-17.59,27.42-26.74a4.73,4.73,0,0,1,6.81,6.57c-9,9.29-18.32,18.42-27.84,27.15A4.72,4.72,0,0,1,1803.93,2487.15Zm-878.75-30.41a4.67,4.67,0,0,1-3.43-1.48c-8.83-9.33-17.52-19.1-25.84-29.05a4.73,4.73,0,0,1,7.26-6.07c8.2,9.8,16.76,19.43,25.45,28.62a4.73,4.73,0,0,1-3.44,8Zm-63.44-78.86a4.74,4.74,0,0,1-3.91-2.07c-7.28-10.69-14.31-21.73-20.89-32.8a4.73,4.73,0,0,1,8.13-4.84c6.49,10.91,13.41,21.78,20.58,32.31a4.73,4.73,0,0,1-3.91,7.4Zm-50-88a4.73,4.73,0,0,1-4.29-2.73c-5.46-11.71-10.61-23.74-15.32-35.74a4.73,4.73,0,1,1,8.81-3.46c4.64,11.82,9.71,23.67,15.09,35.21a4.72,4.72,0,0,1-4.29,6.72ZM776.57,2195a4.74,4.74,0,0,1-4.55-3.46c-3.48-12.44-6.62-25.14-9.31-37.76a4.73,4.73,0,0,1,9.25-2c2.66,12.42,5.74,24.93,9.17,37.18a4.72,4.72,0,0,1-3.28,5.83A4.65,4.65,0,0,1,776.57,2195Z"/><path class="cls-2" d="M757.27,2095.37a4.73,4.73,0,0,1-4.7-4.21q-1.05-9.48-1.81-19a4.73,4.73,0,0,1,4.33-5.1,4.68,4.68,0,0,1,5.1,4.34q.75,9.34,1.78,18.68a4.72,4.72,0,0,1-4.18,5.22Z"/><path class="cls-2" d="M899.19,1999.26a7.52,7.52,0,0,0,3.93,7.8l81,42.6a399,399,0,0,0,30.73,125.46l-52.05,75.2a7.51,7.51,0,0,0,.12,8.73l65,88.5a7.53,7.53,0,0,0,8.29,2.73l87.35-27.13a398.73,398.73,0,0,0,110.49,66.9l16.38,90a7.5,7.5,0,0,0,6.25,6.08l108.51,16.64a7.51,7.51,0,0,0,7.8-3.93l42.6-81A398.89,398.89,0,0,0,1541,2387.16l75.21,52.06a7.53,7.53,0,0,0,8.73-.13l88.49-65a7.51,7.51,0,0,0,2.73-8.29L1689,2278.49a398.73,398.73,0,0,0,66.9-110.49l90-16.37a7.53,7.53,0,0,0,6.09-6.26l16.64-108.51a7.54,7.54,0,0,0-3.94-7.8l-81-42.6A398.42,398.42,0,0,0,1753.05,1861l52.06-75.2a7.53,7.53,0,0,0-.12-8.73l-65-88.5a7.51,7.51,0,0,0-8.29-2.73L1644.38,1713a398.68,398.68,0,0,0-110.48-66.9l-16.38-90a7.53,7.53,0,0,0-6.26-6.09l-108.51-16.63a7.52,7.52,0,0,0-7.8,3.93l-42.6,81A398.69,398.69,0,0,0,1226.89,1649l-75.2-52.06a7.53,7.53,0,0,0-8.73.13l-88.49,65a7.52,7.52,0,0,0-2.74,8.29l27.14,87.35A398.62,398.62,0,0,0,1012,1868.11l-90,16.38a7.53,7.53,0,0,0-6.09,6.26Z"/><path class="cls-3" d="M1383.86,2122.59a104.51,104.51,0,1,1,80.73-37.94A104.1,104.1,0,0,1,1383.86,2122.59Zm.17-194.87a90.36,90.36,0,0,0-57.63,160h0a90.38,90.38,0,1,0,57.63-160Z"/><path class="cls-3" d="M1386.86,2290.27a275.93,275.93,0,0,1-41.8-3.2,270.19,270.19,0,0,1-178-107.89h0a274.87,274.87,0,0,1-23.41-38,0,0,0,0,0,0,0l-.45-.9-.36-.71c-.14-.29-.28-.57-.43-.86l-1.26-2.59q-1.66-3.45-3.23-6.95l12.95-5.8a259.73,259.73,0,0,0,27.64,47.43h0A257.81,257.81,0,0,0,1538.84,2226c68.74-50.46,105.16-128.83,105.15-208.19a257.79,257.79,0,0,0-495.36-99.66l-13.08-5.49a271.93,271.93,0,0,1,522.62,105.13c0,83.73-38.41,166.41-110.93,219.64A270,270,0,0,1,1386.86,2290.27Z"/><path class="cls-2" d="M2000.41,2343.48a4.73,4.73,0,0,1-4-7.21c3.37-5.49,7-10.87,10.93-16a4.73,4.73,0,1,1,7.53,5.71c-3.69,4.88-7.19,10-10.41,15.23A4.71,4.71,0,0,1,2000.41,2343.48Z"/><path class="cls-2" d="M2339.46,2347.36a4.73,4.73,0,0,1-4.08-2.34,197.87,197.87,0,0,0-14.84-21.8q-3-3.85-6.2-7.51a4.73,4.73,0,1,1,7.14-6.21q3.34,3.84,6.51,7.89a206,206,0,0,1,15.55,22.84,4.73,4.73,0,0,1-4.08,7.13Zm-285.4-61.25a4.73,4.73,0,0,1-2.75-8.58,202.5,202.5,0,0,1,32.71-19,4.73,4.73,0,0,1,4,8.59,193.5,193.5,0,0,0-31.18,18.13A4.67,4.67,0,0,1,2054.06,2286.11Zm218.18-7.54a4.69,4.69,0,0,1-2.48-.7,191.78,191.78,0,0,0-32.35-15.89,4.73,4.73,0,1,1,3.35-8.85,202.53,202.53,0,0,1,34,16.68,4.73,4.73,0,0,1-2.48,8.76ZM2143.57,2251a4.73,4.73,0,0,1-.6-9.43,203.69,203.69,0,0,1,37.82-1.26,4.73,4.73,0,1,1-.57,9.44,194.93,194.93,0,0,0-36,1.21A4.26,4.26,0,0,1,2143.57,2251Z"/><path class="cls-2" d="M2364.8,2421.86a4.72,4.72,0,0,1-4.68-4.13c-.78-6.07-1.86-12.19-3.21-18.17a4.73,4.73,0,0,1,9.23-2.09c1.42,6.28,2.55,12.69,3.36,19.07a4.73,4.73,0,0,1-4.09,5.29Z"/><path class="cls-2" d="M2315.85,2579a4.74,4.74,0,0,1-3.51-7.9c4.09-4.55,8-9.36,11.67-14.3a4.73,4.73,0,0,1,7.61,5.62c-3.83,5.18-7.95,10.23-12.25,15A4.72,4.72,0,0,1,2315.85,2579Z"/><path class="cls-2" d="M2168.93,2644.58a203.39,203.39,0,0,1-25.86-1.65,4.73,4.73,0,1,1,1.2-9.38,194.38,194.38,0,0,0,35.44,1.27,4.8,4.8,0,0,1,5,4.46,4.73,4.73,0,0,1-4.46,5C2176.47,2644.48,2172.69,2644.58,2168.93,2644.58Zm68.71-12.33a4.73,4.73,0,0,1-1.65-9.16,193.23,193.23,0,0,0,32-15.39,4.73,4.73,0,1,1,4.87,8.11,202.64,202.64,0,0,1-33.52,16.14A4.8,4.8,0,0,1,2237.64,2632.25ZM2087,2626.9a4.64,4.64,0,0,1-1.95-.43,200.56,200.56,0,0,1-32.31-18.43,4.73,4.73,0,1,1,5.43-7.74,192.92,192.92,0,0,0,30.78,17.56,4.73,4.73,0,0,1-1.95,9Zm-74.19-58.63a4.71,4.71,0,0,1-3.74-1.82,203.65,203.65,0,0,1-20.07-31.33,4.73,4.73,0,1,1,8.4-4.35,193.65,193.65,0,0,0,19.14,29.87,4.73,4.73,0,0,1-3.73,7.63Z"/><path class="cls-2" d="M1974.24,2481.74a4.74,4.74,0,0,1-4.66-3.9c-1.12-6.32-1.95-12.77-2.47-19.2a4.73,4.73,0,0,1,9.43-.76c.49,6.12,1.29,12.28,2.36,18.31a4.73,4.73,0,0,1-3.83,5.48A4.81,4.81,0,0,1,1974.24,2481.74Z"/><path class="cls-2" d="M2017.15,2435.38a2.39,2.39,0,0,0,1.24,2.46l25.55,13.43a125.83,125.83,0,0,0,9.69,39.57l-16.42,23.72a2.37,2.37,0,0,0,0,2.75l20.49,27.91a2.36,2.36,0,0,0,2.61.86l27.55-8.56a125.37,125.37,0,0,0,34.85,21.1l5.16,28.4a2.36,2.36,0,0,0,2,1.92l34.23,5.25a2.37,2.37,0,0,0,2.45-1.24L2180,2567.4a125.83,125.83,0,0,0,39.57-9.69l23.72,16.42a2.36,2.36,0,0,0,2.75,0L2274,2553.6a2.38,2.38,0,0,0,.86-2.61l-8.56-27.55a125.47,125.47,0,0,0,21.1-34.84l28.4-5.17a2.37,2.37,0,0,0,1.92-2l5.25-34.22a2.39,2.39,0,0,0-1.24-2.46l-25.55-13.44a125.83,125.83,0,0,0-9.69-39.57l16.42-23.71a2.39,2.39,0,0,0,0-2.76l-20.49-27.91a2.38,2.38,0,0,0-2.61-.86l-27.55,8.56a125.61,125.61,0,0,0-34.85-21.1l-5.16-28.4a2.38,2.38,0,0,0-2-1.92l-34.22-5.25a2.39,2.39,0,0,0-2.46,1.24l-13.43,25.55a125.83,125.83,0,0,0-39.57,9.69l-23.72-16.42a2.37,2.37,0,0,0-2.75,0L2066.12,2329a2.39,2.39,0,0,0-.86,2.62l8.56,27.54a125.52,125.52,0,0,0-21.1,34.85l-28.4,5.16a2.37,2.37,0,0,0-1.92,2Z"/><path class="cls-3" d="M2170,2479.13a37.62,37.62,0,0,1-24.06-8.65h0a37.87,37.87,0,1,1,24.06,8.65Zm-15-19.59a23.65,23.65,0,1,0-3.18-33.29,23.5,23.5,0,0,0,3.18,33.29Z"/><path class="cls-3" d="M2170.89,2532a90.58,90.58,0,0,1-73.19-37l-.68-1a90.8,90.8,0,0,1-8.38-14.3c0-.1-.1-.21-.14-.31l-.11-.23,0-.09-.36-.78,13-5.8a76.59,76.59,0,0,0,8.19,14.07c.3.41.61.81.91,1.21a76.44,76.44,0,0,0,105.6,15.43l.36-.26a76.45,76.45,0,1,0-115.71-91.29l-13.08-5.49a90.66,90.66,0,0,1,174.21,35,92.18,92.18,0,0,1-1.07,13.91,90.55,90.55,0,0,1-89.47,76.87Z"/><path class="cls-4" d="M81.61,1542.26s365.89,965,481.48,1165.68c134.19,233,526.07,84.54,506.57-110.47s-477.36-1001-477.36-1001Z"/><polygon class="cls-5" points="575.99 839.34 2850.07 50.88 2826.19 2184.58 513.84 1668.64 575.99 839.34"/><ellipse class="cls-6" cx="2852.22" cy="1123.92" rx="223.42" ry="1096.53"/><path class="cls-7" d="M2869.18,2145.46c-20.2-20.54-64.19-99.76-101.9-304.63-36.45-198-56.52-454.79-56.52-723.1s20.07-525.1,56.52-723.09C2805,189.77,2849,110.54,2869.18,90c20.19,20.54,64.18,99.77,101.89,304.64,36.45,198,56.53,454.79,56.53,723.09s-20.08,525.11-56.53,723.1C2933.36,2045.7,2889.37,2124.92,2869.18,2145.46Z"/><g class="cls-8"><path class="cls-9" d="M3155.54,1109.57c0,186.31-100.36,337.34-299,337.34s-359.69-151-359.69-337.34,161-337.35,359.69-337.35S3155.54,923.26,3155.54,1109.57Z"/></g><path class="cls-10" d="M209.21,793.48c107-12.43,260.38-16.9,426.24,21.09-54.64,285.45-46.4,583,16.8,891.06H184.44A151.6,151.6,0,0,1,34.62,1577.78C11.31,1430.1-17.2,1181.9,13.19,982.55A224.37,224.37,0,0,1,209.21,793.48Z"/><path class="cls-11" d="M490,1012.1H125.49a33.24,33.24,0,0,1-27.91-51.3A9.38,9.38,0,1,1,113.32,971a14.48,14.48,0,0,0,12.17,22.36H490a14.5,14.5,0,0,0,14.5-14.49V952.92A14.51,14.51,0,0,0,490,938.43H122.78a9.37,9.37,0,0,1,0-18.74H490a33.27,33.27,0,0,1,33.24,33.23v25.94A33.28,33.28,0,0,1,490,1012.1Z"/><path class="cls-11" d="M457.47,1173.52H93a33.24,33.24,0,0,1-27.91-51.3,9.38,9.38,0,0,1,15.74,10.19A14.49,14.49,0,0,0,93,1154.78H457.47a14.51,14.51,0,0,0,14.5-14.49v-25.94a14.52,14.52,0,0,0-14.5-14.5H90.28a9.37,9.37,0,0,1,0-18.74H457.47a33.28,33.28,0,0,1,33.24,33.24v25.94A33.27,33.27,0,0,1,457.47,1173.52Z"/><path class="cls-12" d="M906.43,781.59a9.38,9.38,0,0,1-2.84-18.31L2626,215.2a9.37,9.37,0,0,1,5.68,17.86L909.27,781.15A9.34,9.34,0,0,1,906.43,781.59Z"/><path class="cls-12" d="M673.52,876.8a9.37,9.37,0,0,1-3.55-18l88.64-36.23a9.37,9.37,0,1,1,7.09,17.35l-88.64,36.24A9.41,9.41,0,0,1,673.52,876.8Z"/><path class="cls-11" d="M490,1362.57H125.49a33.23,33.23,0,0,1-27.91-51.29,9.37,9.37,0,1,1,15.74,10.17,14.5,14.5,0,0,0,12.17,22.38H490a14.51,14.51,0,0,0,14.5-14.5V1303.4a14.51,14.51,0,0,0-14.5-14.49H122.78a9.38,9.38,0,0,1,0-18.75H490a33.28,33.28,0,0,1,33.24,33.24v25.93A33.28,33.28,0,0,1,490,1362.57Z"/><path class="cls-11" d="M524.1,1572.42H159.61a33.24,33.24,0,0,1-27.9-51.3,9.37,9.37,0,1,1,15.73,10.18,14.5,14.5,0,0,0,12.17,22.37H524.1a14.51,14.51,0,0,0,14.5-14.49v-25.94a14.51,14.51,0,0,0-14.5-14.49H156.91a9.38,9.38,0,0,1,0-18.75H524.1a33.28,33.28,0,0,1,33.24,33.24v25.94A33.28,33.28,0,0,1,524.1,1572.42Z"/><path class="cls-11" d="M849.63,2713.32a238,238,0,0,1-50.7-5.5c-74.11-16.15-134.44-65-165.52-134.07l-291.2-646.93a9.37,9.37,0,1,1,17.09-7.69l291.2,646.94c28.62,63.57,84.18,108.57,152.42,123.43,67.06,14.63,134.93-2.73,186.2-47.61q4.13-3.6,8.29-7.4a9.37,9.37,0,1,1,12.64,13.83q-4.32,3.94-8.59,7.68A229.39,229.39,0,0,1,849.63,2713.32Z"/><path class="cls-11" d="M307.7,1836.69a9.38,9.38,0,0,1-8.55-5.53L266.66,1759a9.37,9.37,0,0,1,17.1-7.69l32.48,72.16a9.38,9.38,0,0,1-8.54,13.23Z"/><path class="cls-11" d="M3102.29,1099.85a9.38,9.38,0,0,1-9.34-8.7c-6.47-91.29-38.11-159.35-94-202.29-96.71-74.25-234.72-48.74-236.1-48.46a9.37,9.37,0,0,1-3.55-18.4c6-1.16,147.74-27.33,251.07,52,60.36,46.34,94.45,119,101.32,215.83a9.37,9.37,0,0,1-8.69,10C3102.74,1099.85,3102.52,1099.85,3102.29,1099.85Z"/><polygon class="cls-13" points="3601.11 1719.03 3357.73 1688.65 3389.29 1564.79 3120.25 1482.51 3515.19 1501.87 3462.95 1629.73 3601.11 1719.03"/><polygon class="cls-14" points="3394.33 2543.22 3206.17 2409.15 3287.74 2320.6 3101.54 2132.02 3420.26 2324.77 3319.74 2407.39 3394.33 2543.22"/><polygon class="cls-15" points="3676.56 0 3455.31 348.24 3347.36 258.9 3139.69 486.97 3344.01 104.63 3446.24 216.35 3676.56 0"/></g></g></svg>